<?xml version="1.0" encoding="UTF-8"?>
<svg version="1.1" xmlns="http://www.w3.org/2000/svg" width="1523" height="245">
<path d="M0 0 C0.83063965 0.19867676 1.6612793 0.39735352 2.51708984 0.60205078 C24.33097495 5.96612089 45.34328328 14.77169769 61.9765625 30.19921875 C69.40465818 36.8099371 78.01397972 39.47955898 87.31054688 42.46508789 C103.65566563 47.73700119 117.24293094 56.42844956 125.375 72.0625 C129.53455463 81.02588811 130.29650378 88.11654054 130 98 C126.45791436 96.6334756 123.02617463 95.08651034 119.58422852 93.48657227 C102.84332892 85.83480256 85.01606654 83.30339783 67 88 C65.84886719 88.29519531 64.69773438 88.59039062 63.51171875 88.89453125 C3.25777763 105.52616397 -39.75257871 156.67860548 -73.33105469 206.23828125 C-76.46323086 210.83492549 -79.68774635 215.31469103 -83.125 219.6875 C-88.77480792 226.87985416 -93.88364172 234.42273175 -99 242 C-102.71268094 240.45872649 -104.98115698 238.19156766 -107.75 235.3125 C-110.76713884 232.22909896 -113.78141718 229.23858474 -117.0625 226.4375 C-120.8375934 223.20930142 -124.29450626 219.72200736 -127.78125 216.1875 C-130.40383357 213.60185423 -133.16099037 211.2184334 -135.95703125 208.82421875 C-139.08993489 206.02676942 -141.99687208 203.01268678 -144.9453125 200.0234375 C-147.17004622 197.83254004 -149.49221261 195.86061645 -152 194 C-151.46568096 189.8876517 -149.30189725 187.87343863 -146.5 184.9375 C-143.09203123 181.30509067 -139.81492573 177.63172135 -136.6875 173.75 C-133.08815027 169.29366224 -129.38666988 164.9438933 -125.625 160.625 C-121.07408404 155.39936128 -116.56233786 150.14486725 -112.09643555 144.84643555 C-108.73223291 140.85758314 -105.33951624 136.89412791 -101.9375 132.9375 C-96.55902792 126.67908924 -91.2621582 120.35650084 -86 114 C-89.71059286 115.70805068 -93.03053769 117.94036543 -96.40625 120.21875 C-97.05291626 120.65255981 -97.69958252 121.08636963 -98.36584473 121.5333252 C-100.57909515 123.01946258 -102.78969276 124.50948915 -105 126 C-106.67057052 127.12500356 -108.34114353 128.25000342 -110.01171875 129.375 C-115.5101529 133.07986817 -121.00528599 136.78961756 -126.5 140.5 C-131.99261964 144.20896819 -137.48584315 147.91698821 -142.984375 151.6171875 C-146.19139283 153.7760401 -149.38900314 155.94762173 -152.578125 158.1328125 C-153.93748392 159.05731531 -155.29685785 159.98179606 -156.65625 160.90625 C-157.26392212 161.32749146 -157.87159424 161.74873291 -158.49768066 162.18273926 C-162.66094922 165 -162.66094922 165 -166 165 C-167.30273438 163.39868164 -167.30273438 163.39868164 -168.59375 161.16015625 C-169.06683594 160.34353516 -169.53992188 159.52691406 -170.02734375 158.68554688 C-170.75630859 157.38713867 -170.75630859 157.38713867 -171.5 156.0625 C-171.98597656 155.23169922 -172.47195312 154.40089844 -172.97265625 153.54492188 C-177.1322758 146.26275413 -181.09290297 138.58709475 -180 130 C-174.3523352 112.45316722 -150.7190652 101.39766173 -136.36694336 91.90454102 C-125.10685554 84.6791282 -125.10685554 84.6791282 -115 76 C-115.63876572 76.27260147 -116.27753143 76.54520294 -116.93565369 76.82606506 C-123.03710421 79.42971017 -129.13900195 82.03230417 -135.2413702 84.63379765 C-138.37656337 85.97039946 -141.51159861 87.30736882 -144.64624023 88.64526367 C-158.3971648 94.51338759 -172.15131379 100.36573422 -186 106 C-190.39176642 101.60823358 -189.30638554 94.77633939 -189.31689453 88.93041992 C-189.17159638 80.01610918 -186.87068815 73.56316692 -180.96777344 66.85375977 C-176.9749491 63.09228145 -172.16887353 60.53435994 -167.4375 57.8125 C-166.32415283 57.15886475 -165.21080566 56.50522949 -164.0637207 55.83178711 C-160.71745924 53.87309887 -157.36083772 51.9335491 -154 50 C-153.08669922 49.47212891 -152.17339844 48.94425781 -151.23242188 48.40039062 C-146.16076429 45.47190489 -141.07155793 42.57537077 -135.97558594 39.68945312 C-132.49247899 37.71184399 -129.0153188 35.72399387 -125.5390625 33.734375 C-124.89900772 33.36811508 -124.25895294 33.00185516 -123.59950256 32.62449646 C-121.03785201 31.15856124 -118.47626747 29.69251091 -115.91488647 28.22610474 C-114.13756673 27.20880705 -112.35984623 26.19221315 -110.58203125 25.17578125 C-109.55311768 24.58708252 -108.5242041 23.99838379 -107.46411133 23.3918457 C-105.99422136 22.56158288 -104.50994381 21.7549719 -103 21 C-106.63 20.34 -110.26 19.68 -114 19 C-114 18.34 -114 17.68 -114 17 C-79.83855604 -2.27085138 -38.5992559 -9.46485389 0 0 Z M-32 22 C-26.12304072 32.15111149 -16.61169782 41.43139078 -5.125 44.5625 C0.66460774 45.4963077 5.00650093 43.90106457 10 41 C12.53627545 39.13068786 14.71503622 37.18561753 17 35 C14.75055643 32.75055643 13.70471088 32.49683983 10.67382812 31.76318359 C9.77950073 31.54310638 8.88517334 31.32302917 7.96374512 31.09628296 C6.99602173 30.86599396 6.02829834 30.63570496 5.03125 30.3984375 C4.04000122 30.1571109 3.04875244 29.9157843 2.02746582 29.66714478 C-0.06991392 29.15790553 -2.16812662 28.6520867 -4.26708984 28.14941406 C-7.48847021 27.37776186 -10.70728435 26.59608267 -13.92578125 25.8125 C-15.96079521 25.31972452 -17.99594698 24.82751773 -20.03125 24.3359375 C-20.99897339 24.10160004 -21.96669678 23.86726257 -22.96374512 23.62582397 C-23.85807251 23.41205109 -24.7523999 23.1982782 -25.67382812 22.97802734 C-26.46277466 22.78864594 -27.25172119 22.59926453 -28.0645752 22.40414429 C-29.99676708 21.93186486 -29.99676708 21.93186486 -32 22 Z M3 64 C3 64.33 3 64.66 3 65 C5.31266404 64.85679155 7.62512435 64.71029195 9.9375 64.5625 C11.22527344 64.48128906 12.51304687 64.40007812 13.83984375 64.31640625 C16.62544666 64.12476711 19.38132174 63.83979292 22.15185547 63.49511719 C27.01690734 62.94926664 31.83797393 62.80547348 36.73046875 62.76171875 C37.63561218 62.75201553 38.54075562 62.74231232 39.47332764 62.73231506 C42.37809731 62.70752933 45.28263539 62.69481243 48.1875 62.6875 C49.66973557 62.68357239 49.66973557 62.68357239 51.18191528 62.67956543 C69.53601464 62.67434097 86.31711735 64.23076514 103.734375 70.36328125 C106.00795558 71.27624096 106.00795558 71.27624096 108 70 C78.29555342 48.95313082 35.38828261 51.78024502 3 64 Z " fill="#2A2928" transform="translate(189,3)"/>
<path d="M0 0 C1.11165024 -0.00101212 1.11165024 -0.00101212 2.24575806 -0.00204468 C26.29663388 0.03280553 49.5811743 4.36364041 67.61328125 21.546875 C81.30288546 36.27969943 82.8988719 53.1814612 82.30419922 72.35595703 C81.39360993 87.06184997 73.67758736 99.34860079 63.125 109.25 C40.06980535 127.21739706 8.87060148 128.636183 -19.15625 125.93359375 C-38.08261027 123.28493192 -57.89431606 116.01428753 -70.00390625 100.52734375 C-80.82904906 85.07709388 -83.26837614 67.52917513 -80.54248047 48.98828125 C-79.7213557 45.23565544 -78.42574338 41.75532619 -76.875 38.25 C-76.58625 37.52425781 -76.2975 36.79851562 -76 36.05078125 C-69.6798777 21.68943193 -56.81739905 12.20971272 -42.60546875 6.53125 C-28.54454898 1.70194981 -14.80995202 0.01204542 0 0 Z M-39.77734375 39.7421875 C-46.31987769 47.56398785 -48.09970946 56.21297767 -47.875 66.25 C-47.02002584 75.42154095 -43.82646577 83.23167266 -37.0546875 89.58203125 C-30.23739612 94.79884741 -22.34520437 98.05766776 -13.875 99.25 C-13.15957031 99.35957031 -12.44414063 99.46914062 -11.70703125 99.58203125 C5.04911428 101.80629836 22.47881926 100.16292846 37 91 C43.55821392 85.91698334 47.33964455 78.24080719 48.609375 70.171875 C49.54432343 59.00749086 48.57857831 49.173337 41.47265625 40.15234375 C31.51547535 29.25849552 17.6216017 26.82222904 3.53515625 26.12109375 C-12.18399907 25.77485685 -28.21021677 28.34433554 -39.77734375 39.7421875 Z " fill="#FE7B47" transform="translate(1289.875,109.75)"/>
<path d="M0 0 C22.275 -0.0928125 22.275 -0.0928125 45 -0.1875 C49.65738281 -0.21481201 54.31476563 -0.24212402 59.11328125 -0.27026367 C64.88085938 -0.28381348 64.88085938 -0.28381348 67.59643555 -0.28633118 C69.45908775 -0.29088316 71.32173214 -0.30131789 73.18432617 -0.31672668 C95.35350152 -0.49066708 116.44344945 1.85233707 133.25 17.875 C144.4386048 29.64079473 147.17895482 43.79935061 147.25 59.5625 C147.2809375 61.23795898 147.2809375 61.23795898 147.3125 62.94726562 C147.38491882 78.56257323 143.12196868 91.37088058 132.31640625 102.74609375 C118.89777036 115.80267538 101.0942022 120.19236871 82.76000977 120.11352539 C81.39086253 120.11370619 81.39086253 120.11370619 79.99405575 120.11389065 C77.05981386 120.1131484 74.12563668 120.1055517 71.19140625 120.09765625 C69.37170441 120.0961847 67.55200215 120.0951653 65.7322998 120.09460449 C59.00902672 120.08937633 52.28576271 120.07541506 45.5625 120.0625 C30.526875 120.041875 15.49125 120.02125 0 120 C0 80.4 0 40.8 0 0 Z M32 26 C32 48.44 32 70.88 32 94 C42.951875 94.061875 42.951875 94.061875 54.125 94.125 C57.53610107 94.15231201 57.53610107 94.15231201 61.01611328 94.18017578 C85.96205849 94.61019416 85.96205849 94.61019416 107.2734375 83.0546875 C113.48710259 75.66014488 114.61969693 65.32806958 114 56 C113.06583005 46.87182506 110.54664916 40.26415959 104 33.75 C93.97593942 25.71761958 79.26425016 25.83641774 67.05859375 25.90234375 C65.71577332 25.90385437 65.71577332 25.90385437 64.3458252 25.90539551 C61.04303686 25.91057646 57.74026696 25.92453718 54.4375 25.9375 C43.3309375 25.9684375 43.3309375 25.9684375 32 26 Z " fill="#FE7B47" transform="translate(1041,113)"/>
<path d="M0 0 C36 0 36 0 44.95703125 5.40625 C47.07379277 7.75318106 48.93320663 9.99338427 50.8125 12.5 C51.83236738 13.69302167 52.86174466 14.87797821 53.90039062 16.0546875 C55.79303495 18.2285958 57.6219576 20.42875299 59.38989258 22.70507812 C64.82271388 29.64772898 70.82926556 35.96524297 77.09375 42.15625 C77.84410522 42.9028186 78.59446045 43.64938721 79.36755371 44.4185791 C81.7425992 46.78152025 84.12086817 49.1411737 86.5 51.5 C89.63839217 54.61160646 92.77332745 57.72663755 95.90625 60.84375 C96.6137439 61.54294556 97.32123779 62.24214111 98.0501709 62.96252441 C101.99531268 66.88843418 105.75316073 70.90865249 109.3626709 75.14611816 C111.15594911 77.1765749 113.08445813 79.08445813 115 81 C115.33 54.27 115.66 27.54 116 0 C126.56 0 137.12 0 148 0 C148 39.6 148 79.2 148 120 C112 120 112 120 101.94921875 113.5 C99.37804986 110.69966459 97.03296643 107.96439522 94.6875 105 C93.42651455 103.56607848 92.15628759 102.14023113 90.87695312 100.72265625 C88.5473935 98.11080763 86.27637107 95.46982472 84.0690918 92.75390625 C77.89228007 85.16498872 71.28689542 78.14744644 64.34765625 71.25 C63.54871948 70.45207031 62.74978271 69.65414062 61.92663574 68.83203125 C58.97467786 65.88525937 56.01833773 62.94288007 53.0625 60 C46.441875 53.4 39.82125 46.8 33 40 C32.67 66.4 32.34 92.8 32 120 C21.44 120 10.88 120 0 120 C0 80.4 0 40.8 0 0 Z " fill="#2A2928" transform="translate(854,113)"/>
<path d="M0 0 C40.26 0 80.52 0 122 0 C122 8.58 122 17.16 122 26 C92.63 26 63.26 26 33 26 C33 32.27 33 38.54 33 45 C60.72 45 88.44 45 117 45 C117 53.58 117 62.16 117 71 C89.28 71 61.56 71 33 71 C33 78.59 33 86.18 33 94 C62.7 94 92.4 94 123 94 C123 102.58 123 111.16 123 120 C82.41 120 41.82 120 0 120 C0 80.4 0 40.8 0 0 Z " fill="#2A2928" transform="translate(700,113)"/>
<path d="M0 0 C0.75072784 0.00182281 1.50145569 0.00364563 2.27493286 0.00552368 C13.8840309 0.05294306 25.11082934 0.6151975 36.4375 3.3125 C37.72406494 3.61776611 37.72406494 3.61776611 39.03662109 3.92919922 C54.89993791 7.77493791 54.89993791 7.77493791 56.4375 9.3125 C56.52517112 11.38512076 56.54445873 13.46070294 56.53515625 15.53515625 C56.53032227 17.42524414 56.53032227 17.42524414 56.52539062 19.35351562 C56.51703403 20.69401109 56.50856907 22.03450588 56.5 23.375 C56.4949866 24.71939942 56.49042342 26.0638006 56.48632812 27.40820312 C56.47449488 30.70967941 56.45800971 34.01106803 56.4375 37.3125 C51.66493647 35.8835039 46.89287236 34.453532 42.12890625 32.99609375 C22.27388252 26.97027558 -3.99752413 21.24579011 -23.96875 29.765625 C-26.63046155 31.06848619 -26.63046155 31.06848619 -27.6875 33.25 C-27.75594756 35.4805383 -27.75594756 35.4805383 -25.90112305 37.31787109 C-17.15253337 44.77960799 0.22964017 45.84721401 11.28198242 48.234375 C26.5191311 51.54006149 41.41534276 55.36460186 54.4375 64.3125 C55.345 64.910625 56.2525 65.50875 57.1875 66.125 C62.14642993 70.94618188 65.70184319 75.82598967 66.234375 82.87109375 C66.25924602 84.83063363 66.24265145 86.7910785 66.1875 88.75 C66.17082275 89.76827881 66.15414551 90.78655762 66.13696289 91.83569336 C65.84898826 99.26974942 64.79967199 104.84332236 59.4375 110.3125 C58.90769531 110.88484375 58.37789062 111.4571875 57.83203125 112.046875 C45.74092155 123.64974512 26.87171369 126.42477916 10.79296875 126.515625 C9.57907219 126.52417511 9.57907219 126.52417511 8.34065247 126.53289795 C6.63214398 126.54229274 4.92361782 126.54885979 3.21508789 126.55273438 C0.66973797 126.56233132 -1.87476449 126.59336164 -4.41992188 126.625 C-20.09589504 126.72778891 -35.16653565 124.78622601 -50.1875 120.1875 C-51.095 119.92324219 -52.0025 119.65898437 -52.9375 119.38671875 C-59.39980344 117.47519656 -59.39980344 117.47519656 -60.5625 116.3125 C-60.80507574 113.51539211 -60.9885885 110.74023803 -61.125 107.9375 C-61.1674585 107.12490723 -61.20991699 106.31231445 -61.25366211 105.47509766 C-61.55247939 99.41818557 -61.68271817 93.37683877 -61.5625 87.3125 C-57.30604013 87.97782235 -53.70221907 89.43363864 -49.75 91.125 C-27.08696202 100.42008155 2.5851028 104.8627086 26.1875 96.9375 C30.24502628 94.99050488 30.24502628 94.99050488 32.4375 91.3125 C32.39223775 88.16903413 32.39223775 88.16903413 30.4375 85.3125 C23.91568494 81.2071831 16.11535294 79.90832826 8.6875 78.375 C6.27974258 77.8564212 3.87219245 77.33687909 1.46484375 76.81640625 C0.27745605 76.56262207 -0.90993164 76.30883789 -2.13330078 76.04736328 C-47.17368852 66.39539353 -47.17368852 66.39539353 -59.5625 49.3125 C-63.07550654 42.59544841 -62.65105355 32.74711871 -60.875 25.51171875 C-57.06305428 16.3153997 -50.43848246 10.53624338 -41.5625 6.3125 C-27.97784109 1.11385387 -14.39863669 -0.07250069 0 0 Z " fill="#FE7B47" transform="translate(1457.5625,109.6875)"/>
<path d="M0 0 C1.60279192 0.00015914 3.20558896 0.00585476 4.80834961 0.01586914 C5.65038437 0.01728409 6.49241913 0.01869904 7.35997009 0.02015686 C10.06024671 0.02577276 12.76044163 0.03832791 15.46069336 0.05102539 C17.28686404 0.05603834 19.11303602 0.06060161 20.93920898 0.06469727 C25.42556878 0.07574735 29.9118672 0.0930226 34.39819336 0.11352539 C34.9213916 1.13486572 35.44458984 2.15620605 35.98364258 3.20849609 C48.9765335 28.5833044 48.9765335 28.5833044 62.19848633 53.83911133 C64.61563093 58.42155315 67.00456036 63.01877276 69.39819336 67.61352539 C73.07191579 74.66250216 76.75542501 81.70607729 80.46069336 88.73852539 C80.85562988 89.48859863 81.25056641 90.23867187 81.6574707 91.01147461 C83.40343689 94.32732534 85.14988047 97.64291872 86.89868164 100.95727539 C88.4420939 103.88335787 89.98283842 106.81083255 91.52319336 109.73852539 C92.00925049 110.65843262 92.49530762 111.57833984 92.99609375 112.52612305 C93.44073975 113.37223145 93.88538574 114.21833984 94.34350586 115.09008789 C94.74069824 115.84370605 95.13789062 116.59732422 95.54711914 117.3737793 C96.39819336 119.11352539 96.39819336 119.11352539 96.39819336 120.11352539 C84.18819336 120.11352539 71.97819336 120.11352539 59.39819336 120.11352539 C55.73152669 112.78019206 52.06486003 105.44685872 48.39819336 98.11352539 C26.61819336 98.11352539 4.83819336 98.11352539 -17.60180664 98.11352539 C-21.23180664 105.37352539 -24.86180664 112.63352539 -28.60180664 120.11352539 C-40.81180664 120.11352539 -53.02180664 120.11352539 -65.60180664 120.11352539 C-64.15243849 115.76542095 -62.78349068 112.27772027 -60.69555664 108.28930664 C-60.12184326 107.18828613 -59.54812988 106.08726562 -58.95703125 104.95288086 C-58.34480713 103.78901855 -57.73258301 102.62515625 -57.10180664 101.42602539 C-56.4628463 100.20372517 -55.82425948 98.98122962 -55.18603516 97.75854492 C-53.33048542 94.20711005 -51.46694675 90.65993314 -49.60180664 87.11352539 C-49.1311377 86.21778809 -48.66046875 85.32205078 -48.17553711 84.39916992 C-46.57307867 81.35072621 -44.96923842 78.30302508 -43.36157227 75.25732422 C-39.9142735 68.72357198 -36.50614893 62.16974427 -33.10180664 55.61352539 C-28.87860069 47.48103356 -24.63835675 39.35818147 -20.35986328 31.25463867 C-18.00893912 26.79858842 -15.67413729 22.3345545 -13.35180664 17.86352539 C-12.80145752 16.80472168 -12.2511084 15.74591797 -11.68408203 14.6550293 C-10.60355031 12.57480124 -9.52456301 10.49377011 -8.44726562 8.41186523 C-7.9607251 7.47552246 -7.47418457 6.53917969 -6.97290039 5.57446289 C-6.53905029 4.73705566 -6.1052002 3.89964844 -5.65820312 3.03686523 C-4.06049633 0.12798284 -4.06049633 0.12798284 0 0 Z M14.39819336 32.11352539 C11.54430343 37.77071983 8.69661238 43.43100213 5.85327148 49.09350586 C4.8846559 51.02066083 3.91460754 52.94709634 2.94311523 54.87280273 C1.54939195 57.63607248 0.16079105 60.40186313 -1.22680664 63.16821289 C-1.66428223 64.03284149 -2.10175781 64.89747009 -2.55249023 65.78829956 C-2.95290527 66.58897858 -3.35332031 67.38965759 -3.76586914 68.21459961 C-4.12116699 68.92075409 -4.47646484 69.62690857 -4.8425293 70.35446167 C-5.7339053 72.10024382 -5.7339053 72.10024382 -5.60180664 74.11352539 C8.25819336 74.11352539 22.11819336 74.11352539 36.39819336 74.11352539 C34.68892405 68.96188229 34.68892405 68.96188229 32.51879883 64.12768555 C32.15857635 63.40739166 31.79835388 62.68709778 31.42721558 61.94497681 C31.04381012 61.18848846 30.66040466 60.43200012 30.26538086 59.65258789 C29.86868195 58.86201996 29.47198303 58.07145203 29.06326294 57.25692749 C27.80367125 54.7488794 26.53852573 52.24368133 25.27319336 49.73852539 C24.41475134 48.03167973 23.55667449 46.32465036 22.69897461 44.61743164 C20.60293501 40.4473246 18.50191218 36.27976336 16.39819336 32.11352539 C15.73819336 32.11352539 15.07819336 32.11352539 14.39819336 32.11352539 Z " fill="#2A2928" transform="translate(427.601806640625,112.886474609375)"/>
<path d="M0 0 C12.21 0 24.42 0 37 0 C62.32068469 51.69174201 62.32068469 51.69174201 72.61328125 73.546875 C73.03633545 74.44390137 73.45938965 75.34092773 73.89526367 76.26513672 C74.6906587 77.95319963 75.48393522 79.6422631 76.2746582 81.33251953 C77.76531684 84.909584 77.76531684 84.909584 80 88 C94.42790759 58.45097567 94.42790759 58.45097567 108.66259766 28.80859375 C111.31185423 23.24505823 113.96656448 17.68415484 116.625 12.125 C117.40798462 10.48072021 117.40798462 10.48072021 118.20678711 8.80322266 C118.68768799 7.7982373 119.16858887 6.79325195 119.6640625 5.7578125 C120.09154785 4.8620752 120.5190332 3.96633789 120.95947266 3.04345703 C122 1 122 1 123 0 C125.73894085 -0.08858646 128.4525327 -0.11523479 131.19140625 -0.09765625 C132.01124496 -0.0962413 132.83108368 -0.09482635 133.67576599 -0.09336853 C136.30471382 -0.08775289 138.93357773 -0.07519779 141.5625 -0.0625 C143.34049357 -0.05748701 145.11848846 -0.05292376 146.89648438 -0.04882812 C151.26435545 -0.03777839 155.63216348 -0.02050331 160 0 C154.56601954 11.74941164 148.82806282 23.3108092 142.8470459 34.79055786 C138.03656514 44.02512993 133.32138987 53.30057746 128.6875 62.625 C124.46271173 71.12194094 120.16904116 79.56920096 115.70605469 87.94335938 C111.60474089 95.67027534 107.72103017 103.50472031 103.84521484 111.34667969 C103.35875488 112.32797852 102.87229492 113.30927734 102.37109375 114.3203125 C101.93724365 115.19961426 101.50339355 116.07891602 101.05639648 116.98486328 C100 119 100 119 99 120 C96.1156618 120.08865208 93.25537842 120.11521296 90.37109375 120.09765625 C89.07474754 120.09553383 89.07474754 120.09553383 87.75221252 120.09336853 C84.98060708 120.08775239 82.2090812 120.07519719 79.4375 120.0625 C77.5631522 120.05748708 75.68880315 120.05292381 73.81445312 120.04882812 C69.20960456 120.03777772 64.60481579 120.0205023 60 120 C51.67483111 104.39147107 43.75694082 88.59339495 35.88623047 72.75195312 C30.20068206 61.315287 24.48084192 49.90760539 18.49746704 38.62342834 C14.85288793 31.74711192 11.31692243 24.8200399 7.83691406 17.85913086 C6.84351038 15.87459269 5.84364173 13.89338522 4.84375 11.91210938 C4.20534203 10.63821477 3.56730511 9.36413413 2.9296875 8.08984375 C2.36491699 6.96441162 1.80014648 5.83897949 1.21826172 4.67944336 C0 2 0 2 0 0 Z " fill="#2A2928" transform="translate(521,113)"/>
<path d="M0 0 C1.17046875 0.03996094 2.3409375 0.07992187 3.546875 0.12109375 C12.98669109 0.52163641 12.98669109 0.52163641 16.75 2.75 C15.42487424 14.58923839 0.44504008 27.31885434 -8.25 34.75 C-15.079159 39.969352 -22.55190594 43.97642448 -30.25 47.75 C-22.54969212 56.05412764 -14.83554438 64.32500137 -6.7277832 72.23510742 C-3.98104922 74.93464822 -1.38946551 77.70662714 1.125 80.625 C4.80236514 84.87619575 8.73888175 88.81572309 12.75 92.75 C17.44290698 97.35300455 21.93120036 102.02939542 26.21875 107.01367188 C28.48606929 109.58465 31.00304043 111.83675142 33.5625 114.109375 C34.75 115.75 34.75 115.75 34.5 117.890625 C33.75 119.75 33.75 119.75 32.75 120.75 C28.29965728 120.99391515 23.84350309 120.97858647 19.38720703 120.99023438 C17.15488437 120.99987099 14.92350983 121.03084597 12.69140625 121.0625 C11.26042212 121.06903701 9.82943141 121.07428474 8.3984375 121.078125 C7.10083496 121.0874707 5.80323242 121.09681641 4.46630859 121.10644531 C-9.29789614 119.78626801 -17.4277524 107.27996234 -25.72509766 97.53027344 C-29.15140096 93.53017678 -32.70182703 89.64174605 -36.25 85.75 C-37.0646875 84.85410156 -37.879375 83.95820313 -38.71875 83.03515625 C-44.06670883 77.17599548 -49.45943192 71.35920858 -54.875 65.5625 C-55.51405273 64.87599365 -56.15310547 64.1894873 -56.81152344 63.48217773 C-59.53417556 60.57293188 -62.25625852 57.69385163 -65.171875 54.9765625 C-71.66642378 48.91636252 -71.66642378 48.91636252 -72.3125 44.6875 C-72.291875 43.718125 -72.27125 42.74875 -72.25 41.75 C-66.60619588 36.78413031 -60.46622838 33.08938944 -53.9375 29.4375 C-42.67802033 23.08061958 -33.45636762 15.85014477 -25.25 5.75 C-18.98530275 -1.92930631 -8.98566773 -0.43123182 0 0 Z " fill="#2A2928" transform="translate(301.25,113.25)"/>
<path d="M0 0 C-0.391875 1.175625 -0.78375 2.35125 -1.1875 3.5625 C-1.45820313 4.3771875 -1.72890625 5.191875 -2.0078125 6.03125 C-2.74654107 8.24161894 -3.49248516 10.44957895 -4.2421875 12.65625 C-11.02243073 32.65153777 -13.35656489 50.05481459 -5 70 C-3.31284449 72.99696872 -1.52688234 75.81982602 0.44921875 78.6328125 C2.0127059 81.0193949 3.03307235 83.32308699 4 86 C-45.74419653 115.59464857 -45.74419653 115.59464857 -59 114 C-62.87825075 112.72527751 -66.43400142 110.98406138 -70.0625 109.125 C-71.01060547 108.66480469 -71.95871094 108.20460938 -72.93554688 107.73046875 C-79.84308036 104.31383929 -79.84308036 104.31383929 -81 102 C-79.98706055 99.38061523 -79.98706055 99.38061523 -78.38671875 96.05859375 C-78.10172012 95.46354034 -77.8167215 94.86848694 -77.52308655 94.25540161 C-76.58740145 92.31132865 -75.638643 90.37405258 -74.6875 88.4375 C-74.36632202 87.77861786 -74.04514404 87.11973572 -73.7142334 86.44088745 C-58.06163762 54.36949517 -37.93073978 26.34760951 -9 5 C-8.37319336 4.53078125 -7.74638672 4.0615625 -7.10058594 3.578125 C-2.23845681 0 -2.23845681 0 0 0 Z " fill="#2A2928" transform="translate(211,129)"/>
</svg>
